<svg width="18" height="18" viewBox="0 0 18 18" fill="none" xmlns="http://www.w3.org/2000/svg">
<path id="Action" d="M16 0H2C0.9 0 0 0.9 0 2V16C0 17.1 0.9 18 2 18H16C17.1 18 18 17.1 18 16V2C18 0.9 17.1 0 16 0ZM15 16H3C2.45 16 2 15.55 2 15V3C2 2.45 2.45 2 3 2H15C15.55 2 16 2.45 16 3V15C16 15.55 15.55 16 15 16ZM10.56 9.81L8.21 12.83L6.65 10.95C6.45 10.7 6.07 10.71 5.87 10.96L4.13 13.19C3.87 13.52 4.11 14 4.52 14H13.5C13.91 14 14.15 13.53 13.9 13.2L11.35 9.81C11.16 9.55 10.76 9.55 10.56 9.81V9.81Z" fill="#4A99E9"/>
</svg>
