<svg width="16" height="17" viewBox="0 0 16 17" fill="none" xmlns="http://www.w3.org/2000/svg">
<g id="Icon">
<path id="Vector" d="M13.1066 3.15995C11.3466 1.95995 9.17331 2.51995 7.99998 3.89328C6.82665 2.51995 4.65331 1.95328 2.89331 3.15995C1.95998 3.79995 1.37331 4.87995 1.33331 6.01995C1.23998 8.60661 3.53331 10.6799 7.03331 13.8599L7.09998 13.9199C7.60665 14.3799 8.38665 14.3799 8.89331 13.9133L8.96665 13.8466C12.4666 10.6733 14.7533 8.59995 14.6666 6.01328C14.6266 4.87995 14.04 3.79995 13.1066 3.15995ZM8.06665 12.8666L7.99998 12.9333L7.93331 12.8666C4.75998 9.99328 2.66665 8.09328 2.66665 6.16661C2.66665 4.83328 3.66665 3.83328 4.99998 3.83328C6.02665 3.83328 7.02665 4.49328 7.37998 5.40661H8.62665C8.97331 4.49328 9.97331 3.83328 11 3.83328C12.3333 3.83328 13.3333 4.83328 13.3333 6.16661C13.3333 8.09328 11.24 9.99328 8.06665 12.8666Z" fill="#566370"/>
</g>
</svg>
