<svg width="16" height="17" viewBox="0 0 16 17" fill="none" xmlns="http://www.w3.org/2000/svg">
<g id="Icon">
<path id="Vector" d="M4.6668 5.16679H11.3335V6.36012C11.3335 6.66012 11.6935 6.80679 11.9001 6.59346L13.7601 4.73346C13.8935 4.60012 13.8935 4.39346 13.7601 4.26012L11.9001 2.40012C11.6935 2.19346 11.3335 2.34012 11.3335 2.64012V3.83346H4.00014C3.63347 3.83346 3.33347 4.13346 3.33347 4.50012V7.16679C3.33347 7.53346 3.63347 7.83346 4.00014 7.83346C4.3668 7.83346 4.6668 7.53346 4.6668 7.16679V5.16679ZM11.3335 11.8335H4.6668V10.6401C4.6668 10.3401 4.3068 10.1935 4.10014 10.4068L2.24014 12.2668C2.1068 12.4001 2.1068 12.6068 2.24014 12.7401L4.10014 14.6001C4.3068 14.8068 4.6668 14.6601 4.6668 14.3601V13.1668H12.0001C12.3668 13.1668 12.6668 12.8668 12.6668 12.5001V9.83346C12.6668 9.46679 12.3668 9.16679 12.0001 9.16679C11.6335 9.16679 11.3335 9.46679 11.3335 9.83346V11.8335Z" fill="#566370"/>
</g>
</svg>
