<svg width="24" height="24" viewBox="0 0 24 24" fill="none" xmlns="http://www.w3.org/2000/svg">
<g id="SVG=Explore Hover, Style=Style16">
<path id="Vector" d="M15.5 14H14.71L14.43 13.73C15.41 12.59 16 11.11 16 9.5C16 5.91 13.09 3 9.5 3C5.91 3 3 5.91 3 9.5C3 13.09 5.91 16 9.5 16C11.11 16 12.59 15.41 13.73 14.43L14 14.71V15.5L19 20.49L20.49 19L15.5 14ZM8.74484 9.5C6.25484 9.5 8.74484 13.99 8.74484 11.5C8.74484 9.01 10.7548 12 13.2448 12C15.7348 12 14 7.01 14 9.5C14 11.99 11.2348 9.5 8.74484 9.5Z" fill="black"/>
</g>
</svg>
